<?xml version="1.0" standalone="no"?>
<!DOCTYPE svg PUBLIC "-//W3C//DTD SVG 20010904//EN"
 "http://www.w3.org/TR/2001/REC-SVG-20010904/DTD/svg10.dtd">
<svg version="1.0" xmlns="http://www.w3.org/2000/svg"
 width="512.000000pt" height="512.000000pt" viewBox="0 0 512.000000 512.000000"
 preserveAspectRatio="xMidYMid meet">
<metadata>
Created by potrace 1.14, written by Peter Selinger 2001-2017
</metadata>
<g transform="translate(0.000000,512.000000) scale(0.100000,-0.100000)"
fill="#000000" stroke="none">
<path d="M621 4784 c-155 -41 -261 -155 -291 -309 -16 -89 -10 -3826 7 -3875
39 -110 132 -208 240 -251 l58 -24 1890 -3 c1379 -2 1906 0 1950 8 157 30 280
151 314 308 16 75 16 3768 0 3844 -32 154 -152 274 -307 307 -38 8 -576 11
-1930 10 -1607 0 -1885 -2 -1931 -15z m2324 -653 c105 -29 264 -107 345 -169
341 -259 473 -698 330 -1095 -91 -251 -316 -476 -567 -567 -148 -53 -217 -60
-614 -60 l-359 0 0 -615 0 -616 -25 -24 -24 -25 -271 0 -271 0 -24 25 -25 24
0 1551 0 1551 25 25 25 25 687 -4 c677 -3 689 -4 768 -26z"/>
<path d="M2080 3200 l0 -321 358 3 357 3 56 26 c117 55 184 160 184 289 0 129
-67 234 -184 289 l-56 26 -357 3 -358 3 0 -321z"/>
</g>
</svg>
